<svg width="1286" height="1286" viewBox="0 0 1286 1286" fill="none" xmlns="http://www.w3.org/2000/svg">
<path d="M822.095 317.644L325.222 450.781C290.92 459.972 270.564 495.23 279.755 529.532L385.155 922.889C394.346 957.191 429.604 977.547 463.906 968.356L960.778 835.219C995.08 826.028 1015.44 790.77 1006.25 756.468L900.846 363.111C891.654 328.809 856.396 308.453 822.095 317.644Z" fill="#947CD6"/>
<path d="M960.778 450.781L463.906 317.644C429.604 308.453 394.346 328.809 385.155 363.111L279.755 756.468C270.564 790.77 290.92 826.028 325.222 835.219L822.094 968.356C856.396 977.547 891.654 957.191 900.845 922.889L1006.25 529.532C1015.44 495.23 995.08 459.972 960.778 450.781Z" fill="#F7F5FD" stroke="#947CD6" stroke-width="2"/>
<path d="M463.707 484.011L774.252 567.222" stroke="#947CD6" stroke-width="2"/>
<path d="M435.97 587.526L850.03 698.473" stroke="#947CD6" stroke-width="2"/>
</svg>
